<svg xmlns="http://www.w3.org/2000/svg" viewBox="0 0 48 48"><title>Coffee break</title><g id="Coffee_break" data-name="Coffee break"><path d="M37.78,37.46C44.18,36,48,31.36,48,25c0-3.83-2.46-5.74-6.28-5.48A3,3,0,0,0,38.77,16H3.23A3,3,0,0,0,1,17c-1.19,1.33-.83,1.6.43,12.88A17,17,0,0,0,6.32,40H1a1,1,0,0,0-.89,1.45C1.39,44,1.91,46,4.24,46H37.76a3,3,0,0,0,2.69-1.66c1.53-3.07,1.78-3.25,1.4-3.87S41.41,40,35.69,40A16,16,0,0,0,37.78,37.46ZM46,25a10,10,0,0,1-6.84,10c1.48-3.26,1.42-5.1,2.34-13.42C44.31,21.25,46,22.17,46,25ZM2.49,18.33C2.92,17.86-.07,18,38.77,18a1,1,0,0,1,1,1.11L39.44,22H2.56C2.26,19.28,2.07,18.81,2.49,18.33ZM38.66,43.45c-.4.79,1.87.55-34.42.55-.74,0-.84-.44-1.62-2H39.38ZM9.35,40c-6.12-4.58-6-10.59-6.56-16H39.21c-.68,6.15-.59,11.54-6.56,16Z"/><path d="M20.36,10.56C18.31,12.27,18.87,14,20,14a1,1,0,0,0,1-1c0-.92,2-1.21,2-3.33C23,7,19.62,7.12,21.64,5.43S23.14,2,22,2a1,1,0,0,0-1,1c0,.92-2,1.21-2,3.33s2,2.42,2,3.34C21,10,20.84,10.16,20.36,10.56Z"/><path d="M12.36,10.56C10.31,12.27,10.87,14,12,14a1,1,0,0,0,1-1c0-.92,2-1.21,2-3.33C15,7,11.62,7.12,13.64,5.43S15.14,2,14,2a1,1,0,0,0-1,1c0,.92-2,1.21-2,3.33s2,2.42,2,3.34C13,10,12.84,10.16,12.36,10.56Z"/><path d="M28.36,10.56C26.31,12.28,26.87,14,28,14a1,1,0,0,0,1-1c0-.92,2-1.21,2-3.33C31,7,27.62,7.11,29.64,5.43S31.14,2,30,2a1,1,0,0,0-1,1c0,.91-2,1.21-2,3.33s2,2.42,2,3.34C29,10,28.84,10.16,28.36,10.56Z"/></g></svg>